<?xml version="1.0" encoding="UTF-8"?>
<svg id="Layer_1" xmlns="http://www.w3.org/2000/svg" viewBox="0 0 555.75 126.56">
  <defs>
    <style>
      .cls-1 {
        fill: #f8f9fa;
      }

      .cls-2 {
        fill: #8fc93a;
      }
    </style>
  </defs>
  <path class="cls-1" d="M163.54,42.21c-8.34,0-16.88,1.88-23.53,5.16l7.15,14.99c3.58-3.3,9.98-5.57,15.91-5.57,6.47,0,13.37,2.84,13.37,10.78v2.05l-.79-.58c-3.8-2.79-9.03-4.39-14.34-4.39-10.51,0-21.82,5.8-21.82,18.51,0,13.37,11.3,19.45,21.82,19.45,6.46,0,12.4-2.35,16.28-6.45l.43-.45,3.86,5.73h14.22v-31.97c0-20.09-16.82-27.24-32.56-27.24ZM167.56,87.55c-5.19,0-8.28-2.78-8.28-5.47s2.9-5.58,8.28-5.58c3.97,0,7.59,2.55,7.59,5.35,0,3.03-3.55,5.7-7.59,5.7Z"/>
  <path class="cls-1" d="M241.41,74.01l.17-.27,16.87-26.92h-18.27l-8.05,12.88-8.52-12.88h-18.25l16.68,25.4-18.27,29.21h18.29l9.39-14.88,9.73,14.88h18.27l-18.02-27.41Z"/>
  <rect class="cls-1" x="266.76" y="46.82" width="18.47" height="54.6"/>
  <path class="cls-1" d="M323.42,45.7c-18.7,0-29.86,10.62-29.86,28.42s11.16,28.42,29.86,28.42,29.87-10.62,29.87-28.42-11.16-28.42-29.87-28.42ZM323.42,88.52c-8.57,0-13.29-5.12-13.29-14.4s4.72-14.4,13.29-14.4,13.3,5.12,13.3,14.4-4.72,14.4-13.3,14.4Z"/>
  <path class="cls-1" d="M397.05,45.7c-7.04,0-11.85,2.24-16.07,7.48l-.58.72-2.29-7.09h-16.49v54.6h18.47v-36.14l.09-.13c2.49-3.56,5.41-5.44,8.42-5.44s6.84,1.47,6.84,8.51v33.2h18.47v-34.64c0-9.62-2.93-21.07-16.85-21.07Z"/>
  <path class="cls-1" d="M482.23,119.9v-9.71h5.71c.97,0,1.7-.35,2.2-1.05.5-.7.75-1.67.75-2.9v-59.43h10.21v59.33c0,4.37-1.06,7.76-3.18,10.16-2.12,2.4-5.12,3.6-8.99,3.6h-6.71Z"/>
  <path class="cls-1" d="M533.97,99.52c-4.61,0-8.79-.68-12.54-2.03-3.76-1.35-7.12-3.38-10.09-6.08l6.06-7.46c2.84,2.14,5.63,3.74,8.39,4.81,2.75,1.07,5.48,1.6,8.19,1.6,4.04,0,7.07-.63,9.09-1.88,2.02-1.25,3.03-3.13,3.03-5.63,0-1.94-.68-3.3-2.03-4.11-1.35-.8-3.12-1.33-5.31-1.58-2.19-.25-4.53-.46-7.03-.63-2.1-.17-4.19-.43-6.26-.78-2.07-.35-3.96-.98-5.66-1.9-1.7-.92-3.06-2.28-4.08-4.08-1.02-1.8-1.53-4.22-1.53-7.26,0-5.51,1.69-9.63,5.06-12.37,3.37-2.74,8.39-4.1,15.07-4.1,4.07,0,7.86.55,11.37,1.65,3.51,1.1,6.79,2.79,9.86,5.06l-6.16,7.46c-2.6-1.67-5.17-2.92-7.69-3.75-2.52-.83-4.98-1.25-7.38-1.25-3.47,0-6.08.59-7.81,1.78-1.74,1.19-2.6,2.96-2.6,5.33,0,1.57.6,2.7,1.8,3.38,1.2.68,2.79,1.13,4.76,1.33,1.97.2,4.09.38,6.36.55,2.17.13,4.36.38,6.58.73,2.22.35,4.26,1.03,6.13,2.03,1.87,1,3.37,2.49,4.51,4.46,1.13,1.97,1.7,4.66,1.7,8.06,0,5.57-1.81,9.75-5.43,12.52-3.62,2.77-9.07,4.16-16.35,4.16Z"/>
  <ellipse class="cls-1" cx="275.99" cy="30.01" rx="9.23" ry="9.14"/>
  <g>
    <path class="cls-2" d="M84.04,32.47l-1.86,3.5c-.08.15-7.58,13.97-23.75,23.14-1.48-2.61-3.15-5.05-4.95-7.25-15.83-19.37-32.89-15.19-39.49-12.5C4.3,43.32-1.45,53.54.32,63.66c1.26,7.24,6,12.72,13.34,15.42,10.36,3.81,25.32,2.39,35.18.76,4.91,18.79,1.61,39.81,1.57,40.03l-.65,3.95,16.47,2.74.66-3.96c.17-1.06,4.08-25.28-2.13-47.89,22.1-11.71,31.82-30.21,32.24-31.03l1.84-3.56-14.79-7.63ZM25.93,53.65c4.92,0,9.85,2.96,14.61,8.79.41.5.81,1.02,1.2,1.56-9.8,1.27-17.84,1.97-22.4-.24-2.22-1.07-2.5-2.65-2.58-2.97-.61-2.41,1.05-4.95,3.53-5.96,1.93-.79,3.82-1.18,5.64-1.18Z"/>
    <ellipse class="cls-2" cx="79.72" cy="9.14" rx="9.23" ry="9.14"/>
    <ellipse class="cls-2" cx="59.66" cy="26.73" rx="9.23" ry="9.14"/>
  </g>
  <ellipse class="cls-1" cx="495.77" cy="29.01" rx="6.64" ry="6.57"/>
  <path class="cls-1" d="M427.1,111.92l33.51-71.68h12.76l-33.51,71.68h-12.76Z"/>
</svg>